<svg xmlns="http://www.w3.org/2000/svg" viewBox="0 0 128 128"><defs><style>.cls-1,.cls-12,.cls-16,.cls-17,.cls-4,.cls-9{fill:none;}.cls-2{fill:#e5913e;}.cls-3{fill:#ffab57;}.cls-17,.cls-4,.cls-9{stroke:#303030;}.cls-12,.cls-4{stroke-miterlimit:10;}.cls-4,.cls-9{stroke-width:5.63px;}.cls-5{fill:#6f4a1a;}.cls-6{fill:#7e5321;}.cls-7{fill:#7ee05f;}.cls-8{fill:#9aff7d;}.cls-12,.cls-16,.cls-17,.cls-9{stroke-linecap:round;}.cls-16,.cls-17,.cls-9{stroke-linejoin:round;}.cls-10{fill:#ff6376;}.cls-11{opacity:0.9;}.cls-12{stroke:#fff;stroke-width:3.61px;}.cls-13{fill:#fff;}.cls-14{opacity:0.7;}.cls-15{fill:#303030;}.cls-16{stroke:#4fd816;stroke-width:4px;}.cls-17{stroke-width:3px;}</style></defs><title>icon_burger</title><g id="Layer_2" data-name="Layer 2"><g id="Icon"><rect class="cls-1" width="128" height="128"/><rect class="cls-2" x="12.05" y="82.24" width="103.54" height="23.76" rx="11.88"/><rect class="cls-3" x="23.55" y="82.24" width="92.03" height="23.76" rx="11.88"/><rect class="cls-4" x="12.05" y="82.24" width="103.54" height="23.76" rx="11.88"/><rect class="cls-5" x="6.71" y="70.66" width="114.65" height="16.37" rx="6.53"/><rect class="cls-6" x="19.74" y="70.66" width="101.62" height="16.37" rx="6.53"/><rect class="cls-4" x="6.71" y="70.66" width="114.65" height="16.37" rx="6.53"/><path class="cls-7" d="M113.16,74.65c-5.72,1.29-7.26-3-14.62-3.27-8.47-.33-10.19,5.19-17.89,4.15-6-.82-6-4.29-12-5-7.13-.88-8.43,4.09-16.8,4.8-8.88.75-9.58-4.1-19.64-3.93-9.71.17-12.48,5-18.74,2.57-4.24-1.64-8.25-5.9-7.76-9.69.28-2.18,2.08-4.36,6.53-6.53,13.14-6.4,31.94-4.18,49.21-4,22,.2,36.89-3,52.38,4,6.37,2.88,8.33,5.45,8.49,7.76C122.6,69.38,117.88,73.59,113.16,74.65Z"/><path class="cls-8" d="M113.86,74.79c-5.28,1.27-6.68-3-13.46-3.31-7.8-.35-9.4,5.16-16.49,4.1-5.54-.83-5.55-4.3-11-5-6.56-.89-7.77,4.07-15.49,4.76-8.18.73-8.81-4.13-18.07-4-8.95.15-11.52,5-17.27,2.53-3.9-1.65-7.59-5.92-7.13-9.71.27-2.18,1.94-4.36,6-6.51,12.12-6.37,29.43-4.11,45.33-3.91,20.27.26,34-2.88,48.23,4.16,5.86,2.9,7.65,5.47,7.8,7.78C122.56,69.53,118.21,73.73,113.86,74.79Z"/><path class="cls-4" d="M113.16,74.65c-5.72,1.29-7.26-3-14.62-3.27-8.47-.33-10.19,5.19-17.89,4.15-6-.82-6-4.29-12-5-7.13-.88-8.43,4.09-16.8,4.8-8.88.75-9.58-4.1-19.64-3.93-9.71.17-12.48,5-18.74,2.57-4.24-1.64-8.25-5.9-7.76-9.69.28-2.18,2.08-4.36,6.53-6.53,13.14-6.4,31.94-4.18,49.21-4,22,.2,36.89-3,52.38,4,6.37,2.88,8.33,5.45,8.49,7.76C122.6,69.38,117.88,73.59,113.16,74.65Z"/><path class="cls-2" d="M102.82,58.56H25.25a13,13,0,0,1-13-13h0a15.84,15.84,0,0,1,3.81-9.18C17.58,34.56,30.7,21.9,64.41,22c26,.08,42.14,7.71,47.59,14.4,1.14,1.4,3.76,4.62,3.8,9.18a13.52,13.52,0,0,1-3.8,9.18A13.25,13.25,0,0,1,102.82,58.56Z"/><path class="cls-3" d="M103.94,58.56H33.07c-6.55,0-11.86-5.81-11.86-13h0a16.78,16.78,0,0,1,3.48-9.18C26.07,34.56,38.05,21.9,68.85,22c23.79.08,38.5,7.71,43.48,14.4a15.37,15.37,0,0,1,3.47,9.18,14.1,14.1,0,0,1-3.47,9.18A11.52,11.52,0,0,1,103.94,58.56Z"/><path class="cls-9" d="M102.82,58.56H25.25a13,13,0,0,1-13-13h0a15.84,15.84,0,0,1,3.81-9.18C17.58,34.56,30.7,21.9,64.41,22c26,.08,42.14,7.71,47.59,14.4,1.14,1.4,3.76,4.62,3.8,9.18a13.52,13.52,0,0,1-3.8,9.18A13.25,13.25,0,0,1,102.82,58.56Z"/><path class="cls-10" d="M38.23,48.51h-8a2.16,2.16,0,0,1-.06-4.32h8a2.16,2.16,0,0,1,.07,4.32Z"/><path class="cls-10" d="M95,48.74h-8a2.16,2.16,0,0,1-.07-4.32h8A2.16,2.16,0,0,1,95,48.74Z"/><g class="cls-11"><path class="cls-12" d="M105.45,40.68a21.41,21.41,0,0,0-8.55-5.39"/><circle class="cls-13" cx="92.22" cy="33.37" r="1.78"/></g><g class="cls-14"><path class="cls-12" d="M24,98.76c3.52,0,2.89,0,6.41-.06"/><circle class="cls-13" cx="35.49" cy="98.7" r="1.78"/></g><path class="cls-15" d="M61.9,49.84A6,6,0,0,1,56,43.79a2,2,0,1,1,4-.13,1.77,1.77,0,1,0,3.53-.1,2,2,0,1,1,4-.13A6.06,6.06,0,0,1,61.9,49.84Z"/><path class="cls-15" d="M69.45,49.61a6,6,0,0,1-6-6,2,2,0,1,1,4-.13,1.83,1.83,0,0,0,1.81,1.85,1.86,1.86,0,0,0,1.72-2,2,2,0,1,1,4-.12A6.07,6.07,0,0,1,69.45,49.61Z"/><ellipse class="cls-15" cx="82.05" cy="36.22" rx="3.8" ry="4.09"/><ellipse class="cls-15" cx="48.05" cy="36.22" rx="3.8" ry="4.09"/><path class="cls-16" d="M51.63,65.43A5.76,5.76,0,0,0,50.35,67a6.11,6.11,0,0,0-.56,1.41"/><path class="cls-16" d="M82.05,68.21a5.64,5.64,0,0,0-1.16-1.65,5.29,5.29,0,0,0-1.21-.91"/><path class="cls-16" d="M112.65,66.71A6,6,0,0,0,111,65.56a5.82,5.82,0,0,0-1.45-.45"/><path class="cls-16" d="M20.42,65.43A5.89,5.89,0,0,0,18.5,66a6.13,6.13,0,0,0-1.23.89"/><line class="cls-17" x1="16.14" y1="80.89" x2="23.55" y2="80.89"/><line class="cls-17" x1="30.47" y1="77.78" x2="37.88" y2="77.78"/><line class="cls-17" x1="45.19" y1="80.89" x2="52.6" y2="80.89"/><line class="cls-17" x1="62.55" y1="77.78" x2="69.96" y2="77.78"/><line class="cls-17" x1="78.35" y1="80.89" x2="85.76" y2="80.89"/><line class="cls-17" x1="94.39" y1="77.78" x2="101.8" y2="77.78"/><line class="cls-17" x1="105.84" y1="80.89" x2="113.25" y2="80.89"/></g></g></svg>