<svg xmlns="http://www.w3.org/2000/svg" viewBox="0 0 128 128"><defs><style>.cls-1,.cls-4,.cls-8{fill:none;}.cls-2{fill:#ee5151;}.cls-3{fill:#ff5f67;}.cls-4{stroke:#303030;stroke-width:5.63px;}.cls-4,.cls-8{stroke-miterlimit:10;}.cls-5{fill:#ffc97c;}.cls-6{fill:#303030;}.cls-7{opacity:0.9;}.cls-8{stroke:#fff;stroke-linecap:round;stroke-width:3.61px;}.cls-9{fill:#fff;}.cls-10{opacity:0.74;}</style></defs><title>icon_delete_order</title><g id="Layer_2" data-name="Layer 2"><g id="Icon"><rect class="cls-1" width="128" height="128"/><rect class="cls-2" x="10.01" y="36.08" width="107.99" height="55.85" rx="12.67"/><rect class="cls-3" x="23.03" y="36.08" width="94.97" height="55.85" rx="11.88"/><rect class="cls-4" x="10.01" y="36.08" width="107.99" height="55.85" rx="12.67"/><path class="cls-5" d="M35,70.67H27a2.16,2.16,0,0,1-.07-4.32h8A2.16,2.16,0,0,1,35,70.67Z"/><path class="cls-5" d="M89.42,70.67h-8a2.09,2.09,0,0,1-2-1.84,2.12,2.12,0,0,1,2-2.48h8a2.16,2.16,0,0,1,.06,4.32Z"/><ellipse class="cls-6" cx="41.02" cy="55.91" rx="3.8" ry="4.09"/><ellipse class="cls-6" cx="76.96" cy="55.91" rx="3.8" ry="4.09"/><path class="cls-6" d="M56,70.74a6,6,0,0,1-5.94-6A2.09,2.09,0,0,1,52,62.47a2.07,2.07,0,0,1,2.06,2.1,1.77,1.77,0,1,0,3.53-.11,2.11,2.11,0,0,1,2-2.22,2.07,2.07,0,0,1,2.06,2.1A6.06,6.06,0,0,1,56,70.74Z"/><path class="cls-6" d="M63.58,70.51a6,6,0,0,1-5.95-6.05,2.11,2.11,0,0,1,2-2.22,2.07,2.07,0,0,1,2.06,2.1,1.77,1.77,0,1,0,3.53-.11,2,2,0,1,1,4-.12A6.06,6.06,0,0,1,63.58,70.51Z"/><g class="cls-7"><path class="cls-8" d="M107.22,45.55c-4.81,0-7.31.05-12.12,0"/><circle class="cls-9" cx="89.03" cy="45.62" r="1.78"/></g><g class="cls-10"><path class="cls-8" d="M23.77,85.24c4.82,0,1.25,0,6.07,0"/><circle class="cls-9" cx="34.9" cy="85.17" r="1.78"/></g></g></g></svg>