<svg xmlns="http://www.w3.org/2000/svg" viewBox="0 0 128 128"><defs><style>.cls-1,.cls-4,.cls-7,.cls-9{fill:none;}.cls-2{fill:#ffda71;}.cls-3{fill:#fffd8e;}.cls-4,.cls-7,.cls-9{stroke:#303030;}.cls-4,.cls-7{stroke-miterlimit:10;}.cls-4{stroke-width:5.63px;}.cls-5{fill:#ed8e2f;}.cls-6{fill:#ff9f32;}.cls-7{stroke-width:4.5px;}.cls-8{fill:#303030;}.cls-9{stroke-linecap:round;stroke-linejoin:round;stroke-width:3.37px;}.cls-10{fill:#7c7c7c;}.cls-11{fill:#9e9e9e;}.cls-12{fill:#fff;opacity:0.88;}</style></defs><title>icon_recipe</title><g id="Layer_2" data-name="Layer 2"><g id="Icon"><rect class="cls-1" width="128" height="128"/><path class="cls-2" d="M82,20.41h7.11a12,12,0,0,1,12,12v69.35a12,12,0,0,1-12,12H38.89a12,12,0,0,1-12-12V32.42a12,12,0,0,1,12-12h9.36"/><path class="cls-3" d="M84,20.41h6.36c5.93,0,10.73,5.38,10.73,12v69.35c0,6.63-4.8,12-10.73,12H45.49c-5.93,0-10.74-5.38-10.74-12V32.42c0-6.63,4.81-12,10.74-12h8.37"/><path class="cls-4" d="M82,20.41h7.11a12,12,0,0,1,12,12v69.35a12,12,0,0,1-12,12H38.89a12,12,0,0,1-12-12V32.42a12,12,0,0,1,12-12h9.36"/><path class="cls-5" d="M81.12,28.72H76.37v4.14a8.26,8.26,0,0,1-8.23,8.24h-6a8.26,8.26,0,0,1-8.23-8.24V28.72H49.13a6.52,6.52,0,0,0-6.5,6.51v5a6.52,6.52,0,0,0,6.5,6.51h32a6.52,6.52,0,0,0,6.5-6.51v-5A6.52,6.52,0,0,0,81.12,28.72Z"/><path class="cls-5" d="M61.19,25.35a3.94,3.94,0,1,1,5.93,3.37h9.25V23.45a8.26,8.26,0,0,0-8.23-8.23h-6a8.26,8.26,0,0,0-8.23,8.23v5.27h9.25A3.91,3.91,0,0,1,61.19,25.35Z"/><path class="cls-5" d="M62.11,41.1h6a8.26,8.26,0,0,0,8.23-8.24V28.72H67.12a3.83,3.83,0,0,1-4,0H53.88v4.14A8.26,8.26,0,0,0,62.11,41.1Z"/><path class="cls-6" d="M82.24,28.72H77.5v4.14a8.26,8.26,0,0,1-8.23,8.24h-6c-4.52,0-4.85-3.71-4.85-8.24V31H53.63c-3.58,0-6.5.68-6.5,4.26v5a6.52,6.52,0,0,0,6.5,6.51H82.24a6.53,6.53,0,0,0,6.51-6.51v-5A6.53,6.53,0,0,0,82.24,28.72Z"/><path class="cls-6" d="M62.31,25.35a3.94,3.94,0,1,1,5.94,3.37H77.5V23.45a8.26,8.26,0,0,0-8.23-8.23h-6c-4.52,0-4.85,3.71-4.85,8.23v5.27h5.87A3.93,3.93,0,0,1,62.31,25.35Z"/><path class="cls-6" d="M63.23,41.1h6a8.26,8.26,0,0,0,8.23-8.24V28.72H68.25a3.85,3.85,0,0,1-4,0H58.38v4.14C58.38,37.39,58.71,41.1,63.23,41.1Z"/><path class="cls-7" d="M67.12,28.72a3.94,3.94,0,1,0-4,0,3.83,3.83,0,0,0,4,0Z"/><path class="cls-7" d="M81.12,28.72H76.37V23.45a8.26,8.26,0,0,0-8.23-8.23h-6a8.26,8.26,0,0,0-8.23,8.23v5.27H49.13a6.52,6.52,0,0,0-6.5,6.51v5a6.52,6.52,0,0,0,6.5,6.51h32a6.52,6.52,0,0,0,6.5-6.51v-5A6.52,6.52,0,0,0,81.12,28.72ZM61.19,25.35a3.94,3.94,0,1,1,5.93,3.37,3.83,3.83,0,0,1-4,0A3.91,3.91,0,0,1,61.19,25.35Z"/><circle class="cls-8" cx="49.38" cy="57.97" r="3.37"/><circle class="cls-8" cx="78.62" cy="57.97" r="3.37"/><path class="cls-9" d="M57.25,62.47a3.38,3.38,0,0,0,6.75,0,3.38,3.38,0,0,0,6.75,0"/><rect class="cls-10" x="37" y="76.72" width="28.12" height="6.75" rx="3.37"/><rect class="cls-11" x="37" y="86.97" width="54" height="6.75" rx="3.37"/><rect class="cls-11" x="37" y="97.22" width="54" height="6.75" rx="3.37"/><rect class="cls-12" x="42.91" y="100.13" width="11.25" height="2.25" rx="1.12" transform="translate(97.07 202.5) rotate(-180)"/><rect class="cls-12" x="39.54" y="100.13" width="2.25" height="2.25" rx="1.12" transform="translate(81.32 202.5) rotate(-180)"/><rect class="cls-12" x="67.37" y="33.91" width="11.25" height="2.25" rx="1.12"/><rect class="cls-12" x="79.75" y="33.91" width="2.25" height="2.25" rx="1.12"/></g></g></svg>