<svg xmlns="http://www.w3.org/2000/svg" viewBox="0 0 128 128"><defs><style>.cls-1,.cls-12,.cls-13,.cls-4,.cls-7,.cls-9{fill:none;}.cls-2{fill:#e26907;}.cls-3{fill:#f67600;}.cls-12,.cls-4,.cls-7,.cls-9{stroke:#303030;}.cls-12,.cls-13,.cls-4,.cls-7{stroke-miterlimit:10;}.cls-4{stroke-width:6.41px;}.cls-5{fill:#d1d1d1;}.cls-6{fill:#e0e0e0;}.cls-7{stroke-width:6.2px;}.cls-8{fill:#303030;}.cls-13,.cls-9{stroke-linecap:round;}.cls-9{stroke-linejoin:round;stroke-width:3.37px;}.cls-10{fill:#fca147;}.cls-11{fill:#ffbb50;}.cls-12{stroke-width:5.09px;}.cls-13{stroke:#fff;stroke-width:4px;}.cls-14{fill:#fff;}</style></defs><title>icon_ordering</title><g id="Layer_2" data-name="Layer 2"><g id="Icon"><rect class="cls-1" width="128" height="128"/><path class="cls-2" d="M54.75,62.28a9.61,9.61,0,0,1-.55-3.23,9.8,9.8,0,0,1,19.6,0,10,10,0,0,1-.41,2.81"/><path class="cls-3" d="M59.88,62.28a8.08,8.08,0,0,1-.4-2.53,7.18,7.18,0,1,1,14.32,0,8.29,8.29,0,0,1-.3,2.2"/><path class="cls-4" d="M54.75,62.28a9.61,9.61,0,0,1-.55-3.23,9.8,9.8,0,0,1,19.6,0,10,10,0,0,1-.41,2.81"/><path class="cls-5" d="M18.56,106.33a45.44,45.44,0,1,1,90.88,0"/><path class="cls-6" d="M27.12,106.33c0-25.09,18.43-45.44,41.16-45.44s41.16,20.35,41.16,45.44"/><path class="cls-7" d="M18.56,106.33a45.44,45.44,0,1,1,90.88,0"/><circle class="cls-8" cx="49.38" cy="86.99" r="3.37"/><circle class="cls-8" cx="78.62" cy="86.99" r="3.37"/><path class="cls-9" d="M57.25,91.49a3.38,3.38,0,0,0,6.75,0,3.38,3.38,0,0,0,6.75,0"/><rect class="cls-10" x="13.28" y="106.8" width="101.43" height="11.37" rx="5.68"/><rect class="cls-11" x="22.01" y="106.8" width="92.7" height="11.37" rx="5.68"/><rect class="cls-4" x="13.28" y="106.8" width="101.43" height="11.37" rx="5.68"/><path class="cls-12" d="M47.25,44.81c1.9-1.8,4.27-4.56,3.67-7.17-.78-3.41-6-4-6.41-6.86-.17-1.33.65-3.47,6-6.67"/><path class="cls-12" d="M62.24,30.52c1.9-1.79,4.27-4.55,3.67-7.16-.79-3.41-6-3.95-6.41-6.86-.17-1.34.65-3.48,6-6.67"/><path class="cls-12" d="M80.84,47.46c1.9-1.79,4.27-4.55,3.67-7.16-.78-3.42-6-4-6.41-6.86-.17-1.34.65-3.48,6-6.67"/><path class="cls-13" d="M78.19,72.19a24.12,24.12,0,0,1,12.26,8.2"/><circle class="cls-14" cx="94.55" cy="85.02" r="2.09"/></g></g></svg>