<svg xmlns="http://www.w3.org/2000/svg" viewBox="0 0 128 128"><defs><style>.cls-1,.cls-4,.cls-8{fill:none;}.cls-2{fill:#63e585;}.cls-3{fill:#67f993;}.cls-4{stroke:#303030;stroke-linejoin:round;stroke-width:6.32px;}.cls-4,.cls-8{stroke-linecap:round;}.cls-5{fill:#ff6376;}.cls-6{fill:#303030;}.cls-7{opacity:0.83;}.cls-8{stroke:#fff;stroke-miterlimit:10;stroke-width:3.61px;}.cls-9{fill:#fff;}</style></defs><title>icon_add_order</title><g id="Layer_2" data-name="Layer 2"><g id="Icon"><rect class="cls-1" width="128" height="128"/><polygon class="cls-2" points="110.65 44 86 44 86 19.35 42.2 19.35 42.2 44 17.55 44 17.55 87.8 42.2 87.8 42.2 112.45 86 112.45 86 87.8 110.65 87.8 110.65 44"/><polygon class="cls-3" points="110.65 44 88.94 44 88.94 19.35 50.38 19.35 50.38 44 28.68 44 28.68 87.8 50.38 87.8 50.38 112.45 88.94 112.45 88.94 87.8 110.65 87.8 110.65 44"/><polygon class="cls-4" points="110.65 44 86 44 86 19.35 42.2 19.35 42.2 44 17.55 44 17.55 87.8 42.2 87.8 42.2 112.45 86 112.45 86 87.8 110.65 87.8 110.65 44"/><path class="cls-5" d="M44.35,70.67H36.3a2.16,2.16,0,0,1-.06-4.32h8a2.16,2.16,0,0,1,.07,4.32Z"/><path class="cls-5" d="M91.76,70.67h-8a2.16,2.16,0,0,1-.07-4.32h8a2.16,2.16,0,0,1,.06,4.32Z"/><ellipse class="cls-6" cx="46.36" cy="58.91" rx="3.8" ry="4.09"/><ellipse class="cls-6" cx="82.3" cy="58.91" rx="3.8" ry="4.09"/><path class="cls-6" d="M61.37,71.74a6,6,0,0,1-5.95-6,2.11,2.11,0,0,1,2-2.23,2.08,2.08,0,0,1,2.06,2.1,1.77,1.77,0,1,0,3.53-.1,2,2,0,1,1,4-.13A6.06,6.06,0,0,1,61.37,71.74Z"/><path class="cls-6" d="M68.92,71.51a6,6,0,0,1-6-6.05,2,2,0,1,1,4-.13,1.77,1.77,0,1,0,3.53-.1,2,2,0,1,1,4-.13A6.06,6.06,0,0,1,68.92,71.51Z"/><g class="cls-7"><path class="cls-8" d="M77.23,41c0-4.82,0-1.59,0-6.41"/><circle class="cls-9" cx="77.17" cy="29.56" r="1.78"/></g></g></g></svg>