<svg xmlns="http://www.w3.org/2000/svg" viewBox="0 0 128 128"><defs><style>.cls-1,.cls-11,.cls-13,.cls-4,.cls-7{fill:none;}.cls-2{fill:#824b03;}.cls-3{fill:#8d5300;}.cls-13,.cls-4,.cls-7{stroke:#303030;}.cls-11,.cls-4,.cls-7{stroke-miterlimit:10;}.cls-4{stroke-width:4.9px;}.cls-5{fill:#ff9e10;}.cls-6{fill:#ffc30d;}.cls-7{stroke-width:5.1px;}.cls-8{fill:#ff6376;}.cls-9{fill:#303030;}.cls-10{opacity:0.83;}.cls-11{stroke:#fff;stroke-width:3.61px;}.cls-11,.cls-13{stroke-linecap:round;}.cls-12{fill:#fff;}.cls-13{stroke-linejoin:round;stroke-width:4px;}</style></defs><title>icon_sad_bread</title><g id="Layer_2" data-name="Layer 2"><g id="Icon"><rect class="cls-1" width="128" height="128"/><path class="cls-2" d="M88.94,18.38H39.06a19.46,19.46,0,0,0-19.4,19.4h0A19.46,19.46,0,0,0,30.48,55.15V97.62a12,12,0,0,0,12,12h43a12,12,0,0,0,12-12V55.15a19.46,19.46,0,0,0,10.82-17.37h0A19.46,19.46,0,0,0,88.94,18.38Z"/><path class="cls-3" d="M90.31,18.38H44c-9.92,0-18,8.73-18,19.4h0A19.64,19.64,0,0,0,36,55.15V97.62c0,6.6,5,12,11.15,12h40c6.13,0,11.15-5.4,11.15-12V55.15a19.64,19.64,0,0,0,10-17.37h0C108.34,27.11,100.23,18.38,90.31,18.38Z"/><path class="cls-4" d="M88.94,18.38H39.06a19.46,19.46,0,0,0-19.4,19.4h0A19.46,19.46,0,0,0,30.48,55.15V97.62a12,12,0,0,0,12,12h43a12,12,0,0,0,12-12V55.15a19.46,19.46,0,0,0,10.82-17.37h0A19.46,19.46,0,0,0,88.94,18.38Z"/><path class="cls-5" d="M89.52,28.29h-51a9.41,9.41,0,0,0,0,18.82H40c0,.16,0,.31,0,.47V95.81a5.32,5.32,0,0,0,5.3,5.3H82.77a5.32,5.32,0,0,0,5.3-5.3V47.58c0-.16,0-.31,0-.47h1.5a9.41,9.41,0,1,0,0-18.82Z"/><path class="cls-6" d="M90.45,28.29h-46c-4.67,0-8.48,4.23-8.48,9.41s3.81,9.41,8.48,9.41h1.34c0,.16,0,.31,0,.47V95.81a5.08,5.08,0,0,0,4.77,5.3H84.38a5.07,5.07,0,0,0,4.76-5.3V47.58c0-.16,0-.31,0-.47h1.35c4.66,0,8.48-4.23,8.48-9.41S95.11,28.29,90.45,28.29Z"/><path class="cls-7" d="M89.52,28.29h-51a9.41,9.41,0,0,0,0,18.82H40c0,.16,0,.31,0,.47V95.81a5.32,5.32,0,0,0,5.3,5.3H82.77a5.32,5.32,0,0,0,5.3-5.3V47.58c0-.16,0-.31,0-.47h1.5a9.41,9.41,0,1,0,0-18.82Z"/><path class="cls-8" d="M46.91,60.17h-8a2.16,2.16,0,0,1-.06-4.32h8a2.16,2.16,0,0,1,.06,4.32Z"/><path class="cls-8" d="M88.54,60.17h-8a2.16,2.16,0,0,1-.07-4.32h8a2.16,2.16,0,0,1,.07,4.32Z"/><ellipse class="cls-9" cx="50.94" cy="47.75" rx="3.8" ry="4.09"/><ellipse class="cls-9" cx="76.85" cy="47.75" rx="3.8" ry="4.09"/><g class="cls-10"><path class="cls-11" d="M47.07,82.79c0,4.81,0,1.59,0,6.4"/><circle class="cls-12" cx="47.14" cy="94.25" r="1.78"/></g><path class="cls-13" d="M57.68,57.68a4.32,4.32,0,0,1,2.06-1.32,4.72,4.72,0,0,1,4,1,6,6,0,0,1,4-.5A5.83,5.83,0,0,1,70.14,58"/></g></g></svg>