<svg xmlns="http://www.w3.org/2000/svg" viewBox="0 0 128 128"><defs><style>.cls-1,.cls-10,.cls-13,.cls-16,.cls-18,.cls-4,.cls-7{fill:none;}.cls-2{fill:#4c3118;}.cls-3{fill:#5b3b1d;}.cls-10,.cls-13,.cls-16,.cls-4,.cls-7{stroke:#303030;}.cls-4,.cls-7{stroke-miterlimit:10;}.cls-10,.cls-4{stroke-width:5px;}.cls-5{fill:#7a5427;}.cls-6{fill:#895e2b;}.cls-7{stroke-width:3.43px;}.cls-8{fill:#eaeaea;}.cls-9{fill:#f7f7f7;}.cls-10,.cls-13,.cls-16,.cls-18{stroke-linecap:round;stroke-linejoin:round;}.cls-11{fill:#ed3b3b;}.cls-12{fill:#ff4640;}.cls-13{stroke-width:4px;}.cls-14{fill:#85e57a;}.cls-15{fill:#87fc7e;}.cls-16{stroke-width:2.5px;}.cls-17{fill:#ff6376;}.cls-18{stroke:#fff;stroke-width:2px;opacity:0.9;}</style></defs><title>icon_household</title><g id="Layer_2" data-name="Layer 2"><g id="Icon"><rect class="cls-1" width="128" height="128"/><rect class="cls-1" width="128" height="128"/><rect class="cls-2" x="32.07" y="56.46" width="64.01" height="64.01" rx="3.46"/><rect class="cls-3" x="37.89" y="56.46" width="58.19" height="62.82" rx="3.27"/><rect class="cls-4" x="32.07" y="56.46" width="64.01" height="64.01" rx="3.46"/><rect class="cls-5" x="38.68" y="63.56" width="22.47" height="22.47" rx="3.46"/><rect class="cls-5" x="67" y="63.56" width="22.47" height="22.47" rx="3.46"/><rect class="cls-5" x="67" y="90.89" width="22.47" height="22.47" rx="3.46"/><rect class="cls-5" x="38.68" y="90.89" width="22.47" height="22.47" rx="3.46"/><rect class="cls-6" x="42.95" y="63.56" width="18.2" height="22.47" rx="3.12"/><rect class="cls-6" x="70.32" y="63.56" width="19.16" height="22.47" rx="3.2"/><rect class="cls-6" x="70.32" y="90.89" width="19.16" height="22.47" rx="3.2"/><rect class="cls-6" x="42.95" y="90.89" width="18.2" height="22.47" rx="3.12"/><rect class="cls-7" x="38.68" y="63.56" width="22.47" height="22.47" rx="3.46"/><rect class="cls-7" x="67" y="63.56" width="22.47" height="22.47" rx="3.46"/><rect class="cls-7" x="67" y="90.89" width="22.47" height="22.47" rx="3.46"/><rect class="cls-7" x="38.68" y="90.89" width="22.47" height="22.47" rx="3.46"/><path class="cls-8" d="M81.36,41.78c8.07-4.26,17.06-1,19.7,5,1.85,4.22.54,9.73-3.16,13.82,6.2.77,11.08,4,12.55,8.46a10.74,10.74,0,0,1-1.51,9.54c-5.88,7.41-20.44-2.5-44.4-2.42-24.12.08-37.94,10.21-44.71,2.58A11.84,11.84,0,0,1,17.41,68.3c1.26-4.67,6-8.23,12.12-9.4-2.72-5.76-1.22-12.2,3-15.3S42,42,42.71,42.24a19.33,19.33,0,1,1,38.65-.46Z"/><path class="cls-9" d="M83.73,44.26c7.42-4,15.69-.94,18.12,4.69,1.7,3.95.5,9.12-2.91,13,5.71.72,10.2,3.72,11.55,7.93a10.24,10.24,0,0,1-1.39,9c-5.41,6.95-18.8-2.35-40.84-2.27-22.19.07-34.9,9.58-41.13,2.41a11.26,11.26,0,0,1-2.23-9.8c1.17-4.38,5.5-7.72,11.16-8.81-2.51-5.4-1.13-11.45,2.78-14.35s8.72-1.48,9.34-1.28c0-9.86,7.71-18,17.15-18.33C75.07,26,83.51,34.08,83.73,44.26Z"/><path class="cls-10" d="M81.36,41.78c8.07-4.26,17.06-1,19.7,5,1.85,4.22.54,9.73-3.16,13.82,6.2.77,11.08,4,12.55,8.46a10.74,10.74,0,0,1-1.51,9.54c-5.88,7.41-20.44-2.5-44.4-2.42-24.12.08-37.94,10.21-44.71,2.58A11.84,11.84,0,0,1,17.41,68.3c1.26-4.67,6-8.23,12.12-9.4-2.72-5.76-1.22-12.2,3-15.3S42,42,42.71,42.24a19.33,19.33,0,1,1,38.65-.46Z"/><circle class="cls-11" cx="63.27" cy="22.68" r="10.47"/><ellipse class="cls-12" cx="65.49" cy="22.29" rx="8.25" ry="8.7"/><circle class="cls-13" cx="63.27" cy="22.68" r="10.47"/><path class="cls-14" d="M69.07,14.38c-.88.8-1.54,1.5-2,2s-1,1.24-1.41,1.74a2,2,0,0,1-2.47-3l2.7-2.89c2.88-3.08,4-4.26,5.75-4.61a2.34,2.34,0,0,1,2,.29c.65.66.32,1.91.27,2.08C73.46,11.62,72.09,11.67,69.07,14.38Z"/><path class="cls-15" d="M69.77,14.22c-.82.72-1.45,1.33-1.92,1.79s-1,1.06-1.39,1.48c-.76.62-1.71.74-2.1.26s-.09-1.39.67-2l2.59-2.5c2.75-2.68,3.79-3.7,5.25-4.24.37-.14,1.19-.44,1.54-.13s-.07,1.3-.14,1.43C73.65,11.52,72.57,11.79,69.77,14.22Z"/><path class="cls-16" d="M69.27,14.38a27.63,27.63,0,0,0-2,2c-.57.65-1,1.24-1.4,1.74a2,2,0,0,1-2.48-3l2.7-2.89C68.93,9.17,70,8,71.8,7.64a2.34,2.34,0,0,1,2,.29c.65.66.32,1.91.27,2.08C73.65,11.62,72.28,11.67,69.27,14.38Z"/><path class="cls-17" d="M44.67,67.72H38.1a1.68,1.68,0,0,1-1.68-1.4A1.64,1.64,0,0,1,38,64.44h6.58a1.67,1.67,0,0,1,1.67,1.4A1.63,1.63,0,0,1,44.67,67.72Z"/><path class="cls-17" d="M84.11,67.72H77.54a1.67,1.67,0,0,1-1.68-1.4,1.64,1.64,0,0,1,1.62-1.88h6.57a1.67,1.67,0,0,1,1.68,1.4A1.64,1.64,0,0,1,84.11,67.72Z"/><circle cx="47.17" cy="56.14" r="3.1"/><circle cx="77.69" cy="55.27" r="3.1"/><path d="M59.55,63a4.74,4.74,0,0,1-4.86-4.59,1.65,1.65,0,0,1,3.29-.1,1.44,1.44,0,1,0,2.88-.08,1.64,1.64,0,1,1,3.28-.09A4.72,4.72,0,0,1,59.55,63Z"/><path d="M65.72,62.83a4.72,4.72,0,0,1-4.86-4.59,1.64,1.64,0,1,1,3.28-.09A1.45,1.45,0,0,0,67,58.07a1.64,1.64,0,1,1,3.28-.1A4.72,4.72,0,0,1,65.72,62.83Z"/><path class="cls-18" d="M66.57,26.82a5.07,5.07,0,0,0,.82-.88,5.43,5.43,0,0,0,.9-1.92"/><line class="cls-18" x1="68.71" y1="21.36" x2="68.71" y2="21.36"/></g></g></svg>