<svg xmlns="http://www.w3.org/2000/svg" viewBox="0 0 128 128"><defs><style>.cls-1,.cls-12,.cls-4{fill:none;}.cls-2{fill:#ef991b;}.cls-3{fill:#ffaa20;}.cls-4{stroke:#303030;stroke-width:5.63px;}.cls-12,.cls-4{stroke-miterlimit:10;}.cls-5{fill:#bcbcbc;}.cls-6{fill:#cecece;}.cls-7{fill:#f9e2af;}.cls-8{fill:#fff7ba;}.cls-9{fill:#ff6376;}.cls-10{fill:#303030;}.cls-11{opacity:0.83;}.cls-12{stroke:#fff;stroke-linecap:round;stroke-width:3.61px;}.cls-13{fill:#fff;}</style></defs><title>icon_view</title><g id="Layer_2" data-name="Layer 2"><g id="Icon"><rect class="cls-1" width="128" height="128"/><rect class="cls-2" x="74.03" y="85.41" width="39.9" height="25.13" rx="7.12" transform="matrix(0.66, 0.75, -0.75, 0.66, 105.03, -37.34)"/><rect class="cls-3" x="76.51" y="86.52" width="39.9" height="18.51" rx="6.25" transform="translate(104.22 -39.93) rotate(48.48)"/><rect class="cls-4" x="74.03" y="85.41" width="39.9" height="25.13" rx="7.12" transform="matrix(0.66, 0.75, -0.75, 0.66, 105.03, -37.34)"/><circle class="cls-5" cx="57.61" cy="53.34" r="43.63"/><ellipse class="cls-6" cx="61.52" cy="53.34" rx="39.72" ry="43.63"/><circle class="cls-4" cx="57.61" cy="53.34" r="43.63"/><circle class="cls-7" cx="57.61" cy="53.34" r="31.39"/><ellipse class="cls-8" cx="61.99" cy="53.34" rx="27" ry="31.39"/><circle class="cls-4" cx="57.61" cy="53.34" r="31.39"/><path class="cls-9" d="M38.32,60.75h-8a2.16,2.16,0,0,1-.07-4.32h8a2.16,2.16,0,0,1,.06,4.32Z"/><path class="cls-9" d="M82,61H74a2.09,2.09,0,0,1-2-1.84,2.12,2.12,0,0,1,2-2.48h8A2.16,2.16,0,0,1,82,61Z"/><path class="cls-10" d="M52,62.07a6,6,0,0,1-5.94-6,2,2,0,1,1,4-.12,1.82,1.82,0,0,0,1.81,1.85,1.85,1.85,0,0,0,1.71-2,2.11,2.11,0,0,1,2-2.22,2.07,2.07,0,0,1,2.06,2.1A6.05,6.05,0,0,1,52,62.07Z"/><path class="cls-10" d="M59.54,61.84a6,6,0,0,1-5.95-6.05,2.11,2.11,0,0,1,2-2.22,2.07,2.07,0,0,1,2.06,2.1,1.77,1.77,0,1,0,3.53-.11,2.11,2.11,0,0,1,2-2.22,2.07,2.07,0,0,1,2.06,2.1A6.06,6.06,0,0,1,59.54,61.84Z"/><g class="cls-11"><path class="cls-12" d="M77.1,40a21.52,21.52,0,0,0-7.61-6.66"/><circle class="cls-13" cx="65.16" cy="30.75" r="1.78"/></g><ellipse class="cls-10" cx="69.15" cy="46.46" rx="3.8" ry="4.09"/><ellipse class="cls-10" cx="43.14" cy="46.46" rx="3.8" ry="4.09"/><g class="cls-11"><path class="cls-12" d="M99.15,95.78l3.29,3.52"/><circle class="cls-13" cx="105.53" cy="102.64" r="1.78"/></g></g></g></svg>